<svg width="200" height="36" viewBox="0 0 200 36" fill="none" xmlns="http://www.w3.org/2000/svg">
<path d="M45.2176 14.2172C46.5448 14.2172 47.6127 14.1757 48.4215 14.0928C49.2302 14.0098 49.8523 13.8439 50.2878 13.5951C50.744 13.3255 51.0655 12.9419 51.2521 12.4442C51.4387 11.9465 51.5839 11.2725 51.6876 10.4223H52.8385V19.5363H51.6876C51.5632 18.7068 51.3973 18.0432 51.1899 17.5455C50.9825 17.0478 50.6507 16.6746 50.1945 16.4257C49.7383 16.1561 49.1162 15.9902 48.3282 15.928C47.5609 15.8451 46.524 15.8036 45.2176 15.8036V22.2114C45.2176 22.875 45.3005 23.4349 45.4664 23.8911C45.6531 24.3474 45.9537 24.7206 46.3685 25.011C46.7832 25.2805 47.3328 25.4775 48.0171 25.602C48.7014 25.7056 49.5413 25.7575 50.5367 25.7575C51.7187 25.7575 52.7141 25.6745 53.5228 25.5086C54.3523 25.3427 55.0367 25.0524 55.5758 24.6377C56.115 24.2229 56.5505 23.6734 56.8823 22.9891C57.2141 22.284 57.494 21.4027 57.7221 20.3451H58.9664L58.4687 27.4683H37.3789V26.2241C38.0632 26.2033 38.6231 26.1411 39.0586 26.0374C39.4941 25.9338 39.8259 25.7575 40.054 25.5086C40.2821 25.2598 40.4376 24.9073 40.5206 24.451C40.6035 23.9948 40.645 23.4038 40.645 22.678V8.30708C40.645 7.58128 40.6035 7.00064 40.5206 6.56515C40.4584 6.10893 40.3236 5.7564 40.1162 5.50755C39.9088 5.23797 39.6081 5.0617 39.2141 4.97875C38.8409 4.87507 38.3432 4.80249 37.721 4.76101V3.51678H57.38L57.5977 9.61353H56.2602C56.1357 8.74257 55.9387 8.02713 55.6691 7.46723C55.3996 6.88658 55.0263 6.43036 54.5493 6.09857C54.0724 5.74603 53.4503 5.50755 52.683 5.38313C51.9364 5.23797 51.0136 5.16539 49.9146 5.16539H46.3996C45.8604 5.16539 45.5286 5.23797 45.4042 5.38313C45.2798 5.50755 45.2176 5.81861 45.2176 6.31631V14.2172Z" fill="#18382B"/>
<path d="M62.1695 14.9949C61.9414 14.3935 61.7237 13.9165 61.5163 13.564C61.309 13.1907 61.0912 12.9108 60.8631 12.7241C60.6557 12.5167 60.4173 12.382 60.1477 12.3197C59.8988 12.2575 59.5981 12.2264 59.2456 12.2264V10.9822H68.5463V12.2264C68.0278 12.2264 67.6131 12.2472 67.302 12.2886C67.0117 12.3301 66.7836 12.3923 66.6177 12.4753C66.4725 12.5582 66.3792 12.6723 66.3377 12.8174C66.2963 12.9419 66.2755 13.087 66.2755 13.2529C66.2755 13.5225 66.3274 13.8336 66.4311 14.1861C66.5347 14.5386 66.6592 14.8912 66.8043 15.2437L69.7594 23.3934H69.8838L73.2121 15.2748C73.3573 14.9223 73.4714 14.6112 73.5543 14.3416C73.6373 14.0513 73.6787 13.7921 73.6787 13.564C73.6787 13.1078 73.5232 12.776 73.2121 12.5686C72.9011 12.3612 72.3516 12.2472 71.5635 12.2264V10.9822H78.4379V12.2264C77.878 12.2264 77.3907 12.3716 76.976 12.6619C76.582 12.9522 76.1672 13.5951 75.7317 14.5905L69.9149 27.7794H67.0843L62.1695 14.9949Z" fill="#18382B"/>
<path d="M93.9454 24.5755C92.0583 26.7114 89.7047 27.7794 86.8844 27.7794C85.5987 27.7794 84.427 27.5824 83.3694 27.1884C82.3326 26.7736 81.4409 26.2033 80.6943 25.4775C79.9478 24.731 79.3671 23.8497 78.9524 22.8335C78.5377 21.8174 78.3303 20.6872 78.3303 19.443C78.3303 18.1573 78.548 16.9856 78.9835 15.928C79.419 14.8497 80.0307 13.9269 80.8187 13.1596C81.6275 12.3716 82.571 11.7598 83.6494 11.3244C84.7485 10.8889 85.9512 10.6711 87.2577 10.6711C89.4558 10.6711 91.1666 11.2621 92.3901 12.4442C93.6136 13.6262 94.2254 15.2852 94.2254 17.4211C94.2254 17.7529 94.1735 17.9603 94.0699 18.0432C93.9662 18.1054 93.6758 18.1365 93.1989 18.1365H83.1828C83.0998 18.3232 83.0584 18.6653 83.0584 19.163C83.0584 21.1953 83.4939 22.8024 84.3648 23.9845C85.2565 25.1665 86.4593 25.7575 87.9731 25.7575C88.8441 25.7575 89.7047 25.5605 90.5549 25.1665C91.4259 24.7725 92.2657 24.2126 93.0745 23.4868L93.9454 24.5755ZM87.9109 16.3946C88.7404 16.3946 89.2692 16.3531 89.4973 16.2702C89.7461 16.1665 89.8706 15.9384 89.8706 15.5859C89.8706 14.6734 89.6113 13.9269 89.0929 13.3462C88.5745 12.7656 87.9213 12.4753 87.1332 12.4753C86.2415 12.4753 85.4432 12.8485 84.7381 13.5951C84.0538 14.3209 83.6079 15.2541 83.4005 16.3946H87.9109Z" fill="#18382B"/>
<path d="M102.747 22.6469C102.747 23.4557 102.778 24.0985 102.841 24.5755C102.923 25.0317 103.079 25.3842 103.307 25.6331C103.535 25.8819 103.867 26.0478 104.302 26.1308C104.738 26.193 105.319 26.2241 106.044 26.2241V27.4683H95.655V26.2241C96.2772 26.1826 96.7749 26.1204 97.1481 26.0374C97.5214 25.9545 97.8013 25.7886 97.988 25.5398C98.1746 25.2909 98.2887 24.9384 98.3302 24.4821C98.3924 24.0052 98.4235 23.3727 98.4235 22.5847V18.7898C98.4235 17.5041 98.3924 16.4776 98.3302 15.7103C98.2679 14.943 98.1331 14.352 97.9258 13.9373C97.7184 13.5225 97.4177 13.2529 97.0237 13.1285C96.6504 12.9833 96.1527 12.9108 95.5306 12.9108V11.8221L101.752 10.6711L102.249 14.2483H102.374C102.934 13.1492 103.67 12.2783 104.582 11.6354C105.495 10.9926 106.459 10.6711 107.475 10.6711C108.263 10.6711 108.906 10.8681 109.404 11.2621C109.902 11.6562 110.15 12.1538 110.15 12.7552C110.15 13.4188 109.953 13.9787 109.559 14.4349C109.186 14.8912 108.668 15.1193 108.004 15.1193C107.693 15.1193 107.413 15.0571 107.164 14.9326C106.915 14.8082 106.687 14.6734 106.48 14.5283C106.293 14.3624 106.096 14.2172 105.889 14.0928C105.702 13.9476 105.505 13.875 105.298 13.875C104.904 13.875 104.531 14.1343 104.178 14.6527C103.826 15.1711 103.535 15.8658 103.307 16.7368C103.141 17.3589 103.006 18.064 102.903 18.852C102.799 19.6193 102.747 20.3865 102.747 21.1538V22.6469Z" fill="#18382B"/>
<path d="M116.684 24.1089C117.244 24.1504 117.731 24.1918 118.146 24.2333C118.582 24.2748 118.986 24.3266 119.359 24.3888C119.753 24.4303 120.137 24.4822 120.51 24.5444C120.904 24.5858 121.319 24.6377 121.754 24.6999C123.372 24.928 124.637 25.5398 125.549 26.5351C126.482 27.5098 126.949 28.7229 126.949 30.1745C126.949 31.9372 126.223 33.2748 124.772 34.1872C123.32 35.0996 121.184 35.5558 118.364 35.5558C115.772 35.5558 113.771 35.1722 112.36 34.4049C110.971 33.6584 110.276 32.5904 110.276 31.201C110.276 30.1227 110.556 29.3036 111.116 28.7437C111.676 28.2045 112.381 27.9349 113.231 27.9349C113.771 27.9349 114.289 28.0386 114.787 28.246C115.305 28.4741 115.741 28.7955 116.093 29.2102C115.554 29.3139 115.108 29.5524 114.756 29.9257C114.424 30.3197 114.258 30.7759 114.258 31.2943C114.258 32.1238 114.621 32.7563 115.347 33.1918C116.093 33.648 117.182 33.8761 118.613 33.8761C121.723 33.8761 123.279 32.8911 123.279 30.9211C123.279 30.216 123.04 29.6043 122.563 29.0858C122.107 28.5881 121.443 28.2874 120.572 28.1838L115.129 27.4372C112.827 27.1262 111.676 26.0997 111.676 24.3577C111.676 23.5075 111.946 22.8128 112.485 22.2736C113.045 21.7345 113.833 21.3612 114.849 21.1538V21.0294C114.372 20.8428 113.936 20.5835 113.542 20.2517C113.169 19.92 112.837 19.5363 112.547 19.1008C112.257 18.6653 112.029 18.1988 111.863 17.7011C111.718 17.1826 111.645 16.6538 111.645 16.1147C111.645 15.3474 111.8 14.632 112.112 13.9684C112.443 13.284 112.889 12.7034 113.449 12.2264C114.03 11.7495 114.704 11.3762 115.471 11.1066C116.259 10.8163 117.109 10.6711 118.022 10.6711C118.913 10.6711 119.784 10.8059 120.635 11.0755C121.485 11.3451 122.211 11.7184 122.812 12.1953C123.289 11.905 123.704 11.6665 124.056 11.4799C124.409 11.2725 124.73 11.117 125.02 11.0133C125.332 10.8889 125.611 10.8059 125.86 10.7645C126.109 10.7022 126.358 10.6711 126.607 10.6711C127.395 10.6711 128.027 10.8474 128.504 11.1999C129.002 11.5525 129.251 12.0191 129.251 12.5997C129.251 13.0352 129.116 13.3981 128.846 13.6884C128.577 13.958 128.224 14.0928 127.789 14.0928C127.478 14.0928 127.229 14.0306 127.042 13.9061C126.856 13.761 126.669 13.6055 126.482 13.4396C126.317 13.2529 126.14 13.0974 125.954 12.973C125.767 12.8278 125.518 12.7552 125.207 12.7552C124.772 12.7552 124.357 13.0352 123.963 13.5951C124.17 13.9476 124.315 14.3313 124.398 14.746C124.481 15.14 124.523 15.6066 124.523 16.1458C124.523 16.9338 124.398 17.6596 124.149 18.3232C123.901 18.9868 123.507 19.5778 122.967 20.0962C122.449 20.5939 121.775 21.019 120.946 21.3716C120.116 21.7241 119.11 21.9626 117.928 22.087C116.933 22.1907 116.238 22.3255 115.844 22.4914C115.471 22.6573 115.284 22.9061 115.284 23.2379C115.284 23.7356 115.751 24.0259 116.684 24.1089ZM118.177 20.314C118.841 20.314 119.359 19.9614 119.732 19.2564C120.106 18.5513 120.292 17.5663 120.292 16.3013C120.292 15.0156 120.106 14.0306 119.732 13.3462C119.359 12.6412 118.83 12.2886 118.146 12.2886C117.441 12.2886 116.881 12.6412 116.466 13.3462C116.052 14.0513 115.844 15.0156 115.844 16.2391C115.844 17.4833 116.052 18.4787 116.466 19.2253C116.902 19.9511 117.472 20.314 118.177 20.314Z" fill="#18382B"/>
<path d="M135.981 22.6469C135.981 23.4557 136.012 24.0985 136.074 24.5755C136.157 25.0317 136.312 25.3842 136.541 25.6331C136.769 25.8819 137.1 26.0478 137.536 26.1308C137.971 26.193 138.552 26.2241 139.278 26.2241V27.4683H128.889V26.2241C129.511 26.1826 130.008 26.1204 130.382 26.0374C130.755 25.9545 131.035 25.7886 131.221 25.5398C131.408 25.2909 131.522 24.9384 131.564 24.4821C131.626 24.0052 131.657 23.3727 131.657 22.5847V18.7898C131.657 17.5041 131.626 16.4776 131.564 15.7103C131.501 14.943 131.367 14.352 131.159 13.9373C130.952 13.5225 130.651 13.2529 130.257 13.1285C129.884 12.9833 129.386 12.9108 128.764 12.9108V11.8221L134.985 10.6711L135.483 14.2483H135.607C136.167 13.1492 136.903 12.2783 137.816 11.6354C138.728 10.9926 139.693 10.6711 140.709 10.6711C141.497 10.6711 142.14 10.8681 142.637 11.2621C143.135 11.6562 143.384 12.1538 143.384 12.7552C143.384 13.4188 143.187 13.9787 142.793 14.4349C142.42 14.8912 141.901 15.1193 141.238 15.1193C140.927 15.1193 140.647 15.0571 140.398 14.9326C140.149 14.8082 139.921 14.6734 139.713 14.5283C139.527 14.3624 139.33 14.2172 139.122 14.0928C138.936 13.9476 138.739 13.875 138.531 13.875C138.137 13.875 137.764 14.1343 137.412 14.6527C137.059 15.1711 136.769 15.8658 136.541 16.7368C136.375 17.3589 136.24 18.064 136.136 18.852C136.033 19.6193 135.981 20.3865 135.981 21.1538V22.6469Z" fill="#18382B"/>
<path d="M159.44 24.5755C157.553 26.7114 155.2 27.7794 152.379 27.7794C151.094 27.7794 149.922 27.5824 148.864 27.1884C147.827 26.7736 146.936 26.2033 146.189 25.4775C145.443 24.731 144.862 23.8497 144.447 22.8335C144.033 21.8174 143.825 20.6872 143.825 19.443C143.825 18.1573 144.043 16.9856 144.478 15.928C144.914 14.8497 145.526 13.9269 146.314 13.1596C147.122 12.3716 148.066 11.7598 149.144 11.3244C150.243 10.8889 151.446 10.6711 152.753 10.6711C154.951 10.6711 156.662 11.2621 157.885 12.4442C159.109 13.6262 159.72 15.2852 159.72 17.4211C159.72 17.7529 159.668 17.9603 159.565 18.0432C159.461 18.1054 159.171 18.1365 158.694 18.1365H148.678C148.595 18.3232 148.553 18.6653 148.553 19.163C148.553 21.1953 148.989 22.8024 149.86 23.9845C150.751 25.1665 151.954 25.7575 153.468 25.7575C154.339 25.7575 155.2 25.5605 156.05 25.1665C156.921 24.7725 157.761 24.2126 158.569 23.4868L159.44 24.5755ZM153.406 16.3946C154.235 16.3946 154.764 16.3531 154.992 16.2702C155.241 16.1665 155.365 15.9384 155.365 15.5859C155.365 14.6734 155.106 13.9269 154.588 13.3462C154.069 12.7656 153.416 12.4753 152.628 12.4753C151.736 12.4753 150.938 12.8485 150.233 13.5951C149.549 14.3209 149.103 15.2541 148.895 16.3946H153.406Z" fill="#18382B"/>
<path d="M177.014 24.5755C175.127 26.7114 172.773 27.7794 169.953 27.7794C168.667 27.7794 167.496 27.5824 166.438 27.1884C165.401 26.7736 164.509 26.2033 163.763 25.4775C163.016 24.731 162.436 23.8497 162.021 22.8335C161.606 21.8174 161.399 20.6872 161.399 19.443C161.399 18.1573 161.617 16.9856 162.052 15.928C162.488 14.8497 163.099 13.9269 163.887 13.1596C164.696 12.3716 165.64 11.7598 166.718 11.3244C167.817 10.8889 169.02 10.6711 170.326 10.6711C172.524 10.6711 174.235 11.2621 175.459 12.4442C176.682 13.6262 177.294 15.2852 177.294 17.4211C177.294 17.7529 177.242 17.9603 177.138 18.0432C177.035 18.1054 176.744 18.1365 176.267 18.1365H166.251C166.168 18.3232 166.127 18.6653 166.127 19.163C166.127 21.1953 166.562 22.8024 167.433 23.9845C168.325 25.1665 169.528 25.7575 171.042 25.7575C171.913 25.7575 172.773 25.5605 173.623 25.1665C174.494 24.7725 175.334 24.2126 176.143 23.4868L177.014 24.5755ZM170.979 16.3946C171.809 16.3946 172.338 16.3531 172.566 16.2702C172.815 16.1665 172.939 15.9384 172.939 15.5859C172.939 14.6734 172.68 13.9269 172.161 13.3462C171.643 12.7656 170.99 12.4753 170.202 12.4753C169.31 12.4753 168.512 12.8485 167.807 13.5951C167.122 14.3209 166.676 15.2541 166.469 16.3946H170.979Z" fill="#18382B"/>
<path d="M185.785 22.3981C185.785 23.2483 185.805 23.9222 185.847 24.4199C185.909 24.8969 186.023 25.2702 186.189 25.5398C186.376 25.7886 186.645 25.9545 186.998 26.0374C187.371 26.1204 187.869 26.1826 188.491 26.2241V27.4683H178.692V26.2241C179.294 26.1826 179.771 26.1204 180.123 26.0374C180.497 25.9545 180.777 25.7886 180.963 25.5398C181.171 25.2909 181.305 24.9384 181.368 24.4821C181.43 24.0259 181.461 23.4038 181.461 22.6158V18.7276C181.461 17.5041 181.44 16.519 181.399 15.7725C181.357 15.0052 181.305 14.4868 181.243 14.2172C181.181 13.9476 181.098 13.7299 180.994 13.564C180.891 13.3773 180.735 13.2426 180.528 13.1596C180.32 13.0559 180.061 12.9937 179.75 12.973C179.439 12.9315 179.045 12.9108 178.568 12.9108V11.8532L184.571 10.6711L184.976 13.4085H185.1C185.785 12.5375 186.593 11.8635 187.527 11.3866C188.46 10.9096 189.486 10.6711 190.606 10.6711C191.933 10.6711 193.001 10.8578 193.81 11.231C194.639 11.5836 195.376 12.185 196.018 13.0352C196.371 13.5121 196.682 14.1343 196.952 14.9015C197.221 15.6481 197.356 16.6849 197.356 18.0121V22.3981C197.356 23.2483 197.377 23.9222 197.418 24.4199C197.48 24.8969 197.594 25.2702 197.76 25.5398C197.947 25.7886 198.217 25.9545 198.569 26.0374C198.922 26.1204 199.399 26.1826 200 26.2241V27.4683H190.264V26.2241C190.886 26.2033 191.373 26.1515 191.726 26.0685C192.099 25.9649 192.379 25.7886 192.566 25.5398C192.752 25.2909 192.877 24.9384 192.939 24.4821C193.001 24.0052 193.032 23.3831 193.032 22.6158V18.3854C193.032 17.3278 192.97 16.4361 192.846 15.7103C192.721 14.9845 192.514 14.4038 192.224 13.9684C191.954 13.5121 191.591 13.1907 191.135 13.0041C190.679 12.7967 190.108 12.693 189.424 12.693C188.76 12.693 188.19 12.8797 187.713 13.2529C187.236 13.6262 186.821 14.1446 186.469 14.8082C186.282 15.1815 186.116 15.6688 185.971 16.2702C185.847 16.8508 185.785 17.4626 185.785 18.1054V22.3981Z" fill="#18382B"/>
<path d="M1.44048 14.4591L1.54416 14.2465L1.76191 14.1117C3.48214 13.0863 5.46364 12.5837 7.46465 12.6653C8.65186 6.45966 12.8926 1.41013 18.4036 0.0622118L18.6524 0L18.8961 0.0622118C25.4231 1.6538 30.1616 8.44007 30.1616 16.1854C30.1616 23.9308 25.4231 30.7015 18.8961 32.3138L18.6524 32.3761L18.4036 32.3138C18.2273 32.2724 18.0458 32.2257 17.8851 32.1739C16.4681 32.8464 14.9174 33.1902 13.3489 33.1796C9.82754 33.116 6.47377 31.6646 4.01708 29.141C-0.12 24.9936 -1.20871 18.8191 1.44048 14.4591ZM19.6893 20.9757L27.7561 12.8986C27.3699 10.8879 26.5951 8.9719 25.475 7.25804L19.6893 13.0697V20.9757ZM17.6155 12.9245L11.8817 7.22175C10.7557 8.91704 9.97042 10.8152 9.56948 12.8104L17.6155 20.8306V12.9245ZM17.6155 29.8979V23.7597L9.24287 15.3922C9.24287 15.6566 9.21695 15.9107 9.21695 16.1854C9.21695 22.4636 12.6749 27.9953 17.6155 29.8979ZM2.6225 16.7609C2.224 17.8007 2.03376 18.9087 2.0626 20.0218H5.88862L2.6225 16.7609ZM8.16972 22.2926L7.96235 22.0852H2.34255C2.64607 23.3761 3.17239 24.6041 3.89784 25.7142H9.77167C9.11735 24.634 8.58032 23.4869 8.16972 22.2926ZM4.08448 15.2885L7.27802 18.4821V18.4354C7.18844 17.6888 7.14343 16.9374 7.14323 16.1854C7.14323 15.6981 7.14323 15.216 7.19507 14.739C6.13309 14.7276 5.07827 14.914 4.08448 15.2885ZM13.1778 5.55759L17.6155 9.99536V2.4781C15.9197 3.15063 14.4012 4.2043 13.1778 5.55759ZM19.6893 2.4781V10.1353L24.1893 5.63017C22.9551 4.24352 21.4142 3.16418 19.6893 2.4781ZM28.0879 16.1854C28.0879 15.9625 28.0879 15.7448 28.0879 15.527L19.6893 23.9049V29.8979C24.6247 27.9953 28.0879 22.4636 28.0879 16.1854ZM15.0234 30.9452C13.6018 30.1096 12.3326 29.0385 11.2699 27.7776H5.5983C8.28378 30.406 11.8869 31.5569 15.0234 30.9452Z" fill="#18382B"/>
</svg>
